<svg xmlns="http://www.w3.org/2000/svg" viewBox="0 0 620 240" width="620" height="240">
<g><g><path d="M310,200 Q460,170 590,36" fill="none" stroke="#9C7C3D" stroke-width="2.4" stroke-linecap="round"></path><g fill="#B7934C"><g transform="translate(335.9,194.0) rotate(-48.8)"><ellipse rx="14.5" ry="6.0" cx="14.5" cy="0"></ellipse></g><g transform="translate(335.9,194.0) rotate(19.2)"><ellipse rx="13.1" ry="5.4" cx="13.1" cy="0"></ellipse></g><g transform="translate(361.6,186.4) rotate(-52.2)"><ellipse rx="14.0" ry="5.8" cx="14.0" cy="0"></ellipse></g><g transform="translate(361.6,186.4) rotate(15.8)"><ellipse rx="12.6" ry="5.3" cx="12.6" cy="0"></ellipse></g><g transform="translate(386.9,177.3) rotate(-55.5)"><ellipse rx="13.5" ry="5.7" cx="13.5" cy="0"></ellipse></g><g transform="translate(386.9,177.3) rotate(12.5)"><ellipse rx="12.2" ry="5.1" cx="12.2" cy="0"></ellipse></g><g transform="translate(411.9,166.5) rotate(-58.8)"><ellipse rx="13.0" ry="5.5" cx="13.0" cy="0"></ellipse></g><g transform="translate(411.9,166.5) rotate(9.2)"><ellipse rx="11.7" ry="4.9" cx="11.7" cy="0"></ellipse></g><g transform="translate(436.7,154.3) rotate(-62.0)"><ellipse rx="12.5" ry="5.3" cx="12.5" cy="0"></ellipse></g><g transform="translate(436.7,154.3) rotate(6.0)"><ellipse rx="11.3" ry="4.8" cx="11.3" cy="0"></ellipse></g><g transform="translate(461.1,140.4) rotate(-65.1)"><ellipse rx="12.0" ry="5.1" cx="12.0" cy="0"></ellipse></g><g transform="translate(461.1,140.4) rotate(2.9)"><ellipse rx="10.8" ry="4.6" cx="10.8" cy="0"></ellipse></g><g transform="translate(485.2,124.9) rotate(-68.1)"><ellipse rx="11.5" ry="4.9" cx="11.5" cy="0"></ellipse></g><g transform="translate(485.2,124.9) rotate(-0.1)"><ellipse rx="10.3" ry="4.4" cx="10.3" cy="0"></ellipse></g><g transform="translate(509.0,107.9) rotate(-70.9)"><ellipse rx="11.0" ry="4.8" cx="11.0" cy="0"></ellipse></g><g transform="translate(509.0,107.9) rotate(-2.9)"><ellipse rx="9.9" ry="4.3" cx="9.9" cy="0"></ellipse></g><g transform="translate(532.5,89.3) rotate(-73.7)"><ellipse rx="10.5" ry="4.6" cx="10.5" cy="0"></ellipse></g><g transform="translate(532.5,89.3) rotate(-5.7)"><ellipse rx="9.5" ry="4.1" cx="9.5" cy="0"></ellipse></g><g transform="translate(555.7,69.2) rotate(-76.2)"><ellipse rx="10.0" ry="4.4" cx="10.0" cy="0"></ellipse></g><g transform="translate(555.7,69.2) rotate(-8.2)"><ellipse rx="9.0" ry="4.0" cx="9.0" cy="0"></ellipse></g><g transform="translate(578.7,47.5) rotate(-78.7)"><ellipse rx="9.5" ry="4.2" cx="9.5" cy="0"></ellipse></g></g></g></g>
<g transform="scale(-1,1) translate(-620,0)"><g><path d="M310,200 Q460,170 590,36" fill="none" stroke="#9C7C3D" stroke-width="2.4" stroke-linecap="round"></path><g fill="#B7934C"><g transform="translate(335.9,194.0) rotate(-48.8)"><ellipse rx="14.5" ry="6.0" cx="14.5" cy="0"></ellipse></g><g transform="translate(335.9,194.0) rotate(19.2)"><ellipse rx="13.1" ry="5.4" cx="13.1" cy="0"></ellipse></g><g transform="translate(361.6,186.4) rotate(-52.2)"><ellipse rx="14.0" ry="5.8" cx="14.0" cy="0"></ellipse></g><g transform="translate(361.6,186.4) rotate(15.8)"><ellipse rx="12.6" ry="5.3" cx="12.6" cy="0"></ellipse></g><g transform="translate(386.9,177.3) rotate(-55.5)"><ellipse rx="13.5" ry="5.7" cx="13.5" cy="0"></ellipse></g><g transform="translate(386.9,177.3) rotate(12.5)"><ellipse rx="12.2" ry="5.1" cx="12.2" cy="0"></ellipse></g><g transform="translate(411.9,166.5) rotate(-58.8)"><ellipse rx="13.0" ry="5.5" cx="13.0" cy="0"></ellipse></g><g transform="translate(411.9,166.5) rotate(9.2)"><ellipse rx="11.7" ry="4.9" cx="11.7" cy="0"></ellipse></g><g transform="translate(436.7,154.3) rotate(-62.0)"><ellipse rx="12.5" ry="5.3" cx="12.5" cy="0"></ellipse></g><g transform="translate(436.7,154.3) rotate(6.0)"><ellipse rx="11.3" ry="4.8" cx="11.3" cy="0"></ellipse></g><g transform="translate(461.1,140.4) rotate(-65.1)"><ellipse rx="12.0" ry="5.1" cx="12.0" cy="0"></ellipse></g><g transform="translate(461.1,140.4) rotate(2.9)"><ellipse rx="10.8" ry="4.6" cx="10.8" cy="0"></ellipse></g><g transform="translate(485.2,124.9) rotate(-68.1)"><ellipse rx="11.5" ry="4.9" cx="11.5" cy="0"></ellipse></g><g transform="translate(485.2,124.9) rotate(-0.1)"><ellipse rx="10.3" ry="4.4" cx="10.3" cy="0"></ellipse></g><g transform="translate(509.0,107.9) rotate(-70.9)"><ellipse rx="11.0" ry="4.8" cx="11.0" cy="0"></ellipse></g><g transform="translate(509.0,107.9) rotate(-2.9)"><ellipse rx="9.9" ry="4.3" cx="9.9" cy="0"></ellipse></g><g transform="translate(532.5,89.3) rotate(-73.7)"><ellipse rx="10.5" ry="4.6" cx="10.5" cy="0"></ellipse></g><g transform="translate(532.5,89.3) rotate(-5.7)"><ellipse rx="9.5" ry="4.1" cx="9.5" cy="0"></ellipse></g><g transform="translate(555.7,69.2) rotate(-76.2)"><ellipse rx="10.0" ry="4.4" cx="10.0" cy="0"></ellipse></g><g transform="translate(555.7,69.2) rotate(-8.2)"><ellipse rx="9.0" ry="4.0" cx="9.0" cy="0"></ellipse></g><g transform="translate(578.7,47.5) rotate(-78.7)"><ellipse rx="9.5" ry="4.2" cx="9.5" cy="0"></ellipse></g></g></g></g>
<g transform="translate(310,202)" fill="#9C7C3D"><rect x="-5" y="-5" width="10" height="10" transform="rotate(45)"></rect></g>
</svg>