<svg xmlns="http://www.w3.org/2000/svg" viewBox="0 0 740 240" role="img" aria-label="Ana Vanzin wordmark">
  
  <g transform="translate(28 22) scale(0.7)">
    <g fill="none" stroke="#211B16" stroke-width="14" stroke-linecap="round" stroke-linejoin="round">
      <path d="M 47 196 L 95 52"></path><path d="M 95 52 L 143 196"></path><path d="M 143 196 L 191 52"></path>
      <path d="M 69 132 L 121 132"></path>
    </g>
    <g stroke="#9B2C1C" fill="none" stroke-linecap="round">
      <path d="M 28 210 L 212 210" stroke-width="9"></path>
      <path d="M 28 210 L 28 226" stroke-width="3.5"></path><path d="M 212 210 L 212 226" stroke-width="3.5"></path>
    </g>
    <g fill="#9B2C1C" stroke="none">
      <path d="M 8 227 Q 28 249 48 227 Z"></path><path d="M 192 227 Q 212 249 232 227 Z"></path>
    </g>
    <circle cx="28" cy="210" r="6.5" fill="#9B2C1C"></circle><circle cx="212" cy="210" r="6.5" fill="#9B2C1C"></circle>
  </g>
  <line x1="232" y1="48" x2="232" y2="192" stroke="#211B16" stroke-width="2"></line>
  <path fill="#211B16" d="M301.57000732421875 128.6Q301.1700073242188 128.8 300.6800048828125 128.8Q299.2099975585937 128.8 297.8499877929687 126.56499633789063Q296.48997802734374 124.32999267578126 296.48997802734374 120.10498657226563V101.8400146484375Q296.48997802734374 95.59501342773437 294.9674896240234 92.94750671386718Q293.44500122070315 90.3 290.6800048828125 90.3Q288.1800048828125 90.3 286.71000976562505 91.6300048828125Q285.2400146484375 92.96000976562499 284.57001953125 94.75001220703125Q283.9000244140625 96.5400146484375 283.63502807617186 97.95001220703125Q283.39002685546876 99.89503784179688 282.4400146484375 101.20003662109374Q281.49000244140626 102.50503540039062 279.26499633789064 102.50503540039062Q277.2699829101563 102.50503540039062 276.3624786376953 101.51503295898438Q275.45497436523436 100.52503051757813 275.45497436523436 99.25502319335938Q275.45497436523436 97.2400146484375 277.4124786376953 95.310009765625Q279.36998291015624 93.3800048828125 282.3674896240234 91.81250305175782Q285.3649963378906 90.24500122070313 288.6125030517578 89.32250061035157Q291.860009765625 88.4 294.45001220703125 88.4Q298.5500122070313 88.4 300.9000244140625 91.02749938964844Q303.2500366210937 93.65499877929688 303.2500366210937 98.8400146484375V117.2Q303.2500366210937 120.48499145507813 304.1900390625 122.11249084472657Q305.1300415039062 123.739990234375 307.1400390625 123.739990234375Q308.8150329589844 123.739990234375 311.4700073242187 122.6Q311.9250061035156 122.4 312.1475067138672 122.95Q312.37000732421876 123.5 311.87000732421876 123.7ZM283.1949890136719 128.7Q279.17998046875 128.7 277.1399780273438 126.69500122070312Q275.0999755859375 124.69000244140625 275.0999755859375 121.7199951171875Q275.0999755859375 119.2999755859375 276.3774871826172 117.63247375488282Q277.6549987792969 115.96497192382813 280.1425079345703 114.6674774169922Q282.63001708984376 113.36998291015625 286.11500854492186 112.10498657226563L297.48997802734374 107.85499877929688L297.77998046875 109.24500122070313L288.7250549316406 112.88997802734374Q287.21007080078124 113.46497192382813 285.9300659179687 114.27996826171875Q284.6500610351562 115.09496459960937 283.8900512695312 116.23496704101562Q283.1300415039062 117.37496948242188 283.1300415039062 119.01498413085938Q283.1300415039062 121.39498901367188 284.6925445556641 122.94748229980469Q286.2550476074219 124.4999755859375 288.5600341796875 124.4999755859375Q289.5250305175781 124.4999755859375 290.52252502441405 124.21747741699218Q291.52001953125 123.93497924804687 292.90501098632814 123.06998291015626L298.839990234375 119.39498901367188L298.9949890136719 120.77499389648438L291.7199951171875 125.60999755859375Q289.35499877929686 127.25499877929687 287.4099975585938 127.97749938964843Q285.4649963378906 128.7 283.1949890136719 128.7Z M344.68499145507815 128.0Q344.38499145507814 128.0 344.38499145507814 127.4Q344.38499145507814 126.8 344.68499145507815 126.8Q348.33497924804686 126.8 349.48997802734374 125.4324981689453Q350.6449768066406 124.06499633789062 350.6449768066406 119.9V104.23502807617187Q350.6449768066406 98.45003662109374 348.5024810791016 95.74003906249999Q346.3599853515625 93.03004150390625 341.7749938964844 93.03004150390625Q338.3350036621094 93.03004150390625 334.7450134277344 95.080029296875Q331.1550231933594 97.13001708984375 328.7050354003906 100.7199951171875L328.2600341796875 99.5199951171875Q332.42001953125 93.860009765625 336.7650207519531 91.00250549316405Q341.1100219726562 88.14500122070312 345.8700317382812 88.14500122070312Q351.4150329589844 88.14500122070312 354.437533569336 91.3425079345703Q357.4600341796875 94.5400146484375 357.4600341796875 100.42500610351563V119.9Q357.4600341796875 124.06499633789062 358.61003417968755 125.4324981689453Q359.7600341796875 126.8 363.46502075195315 126.8Q363.7650207519531 126.8 363.7650207519531 127.4Q363.7650207519531 128.0 363.46502075195315 128.0Q361.63001708984376 128.0 359.19501342773435 127.9Q356.760009765625 127.8 354.0800048828125 127.8Q351.44500122070315 127.8 348.9824981689453 127.9Q346.5199951171875 128.0 344.68499145507815 128.0ZM317.7849914550781 128.0Q317.4849914550781 128.0 317.4849914550781 127.4Q317.4849914550781 126.8 317.7849914550781 126.8Q321.4349792480469 126.8 322.58997802734376 125.4324981689453Q323.74497680664064 124.06499633789062 323.74497680664064 119.9V100.4400146484375Q323.74497680664064 97.17501831054688 322.9899780273438 95.67001953125Q322.2349792480469 94.16502075195312 320.36998291015624 94.16502075195312Q319.41498413085935 94.16502075195312 318.1049865722656 94.54252014160156Q316.79498901367185 94.92001953125 315.12999267578124 95.62001953125Q314.72999267578126 95.76502075195313 314.5024932861328 95.22001953125Q314.2749938964844 94.67501831054688 314.5849914550781 94.52001953125L326.9450256347656 88.6Q327.3250305175781 88.45499877929687 327.5350280761719 88.45499877929687Q328.4150329589844 88.45499877929687 329.48753356933594 90.66250305175781Q330.5600341796875 92.87000732421875 330.5600341796875 97.0400146484375V119.9Q330.5600341796875 124.06499633789062 331.71003417968745 125.4324981689453Q332.8600341796875 126.8 336.5650207519531 126.8Q336.8650207519531 126.8 336.8650207519531 127.4Q336.8650207519531 128.0 336.5650207519531 128.0Q334.7300170898437 128.0 332.2950134277344 127.9Q329.860009765625 127.8 327.1800048828125 127.8Q324.5450012207031 127.8 322.08249816894534 127.9Q319.6199951171875 128.0 317.7849914550781 128.0Z M398.57000732421875 128.6Q398.1700073242188 128.8 397.6800048828125 128.8Q396.2099975585937 128.8 394.8499877929687 126.56499633789063Q393.48997802734374 124.32999267578126 393.48997802734374 120.10498657226563V101.8400146484375Q393.48997802734374 95.59501342773437 391.9674896240234 92.94750671386718Q390.44500122070315 90.3 387.6800048828125 90.3Q385.1800048828125 90.3 383.71000976562505 91.6300048828125Q382.2400146484375 92.96000976562499 381.57001953125 94.75001220703125Q380.9000244140625 96.5400146484375 380.63502807617186 97.95001220703125Q380.39002685546876 99.89503784179688 379.4400146484375 101.20003662109374Q378.49000244140626 102.50503540039062 376.26499633789064 102.50503540039062Q374.2699829101563 102.50503540039062 373.3624786376953 101.51503295898438Q372.45497436523436 100.52503051757813 372.45497436523436 99.25502319335938Q372.45497436523436 97.2400146484375 374.4124786376953 95.310009765625Q376.36998291015624 93.3800048828125 379.3674896240234 91.81250305175782Q382.3649963378906 90.24500122070313 385.6125030517578 89.32250061035157Q388.860009765625 88.4 391.45001220703125 88.4Q395.5500122070313 88.4 397.9000244140625 91.02749938964844Q400.2500366210937 93.65499877929688 400.2500366210937 98.8400146484375V117.2Q400.2500366210937 120.48499145507813 401.1900390625 122.11249084472657Q402.1300415039062 123.739990234375 404.1400390625 123.739990234375Q405.8150329589844 123.739990234375 408.4700073242187 122.6Q408.9250061035156 122.4 409.1475067138672 122.95Q409.37000732421876 123.5 408.87000732421876 123.7ZM380.1949890136719 128.7Q376.17998046875 128.7 374.1399780273438 126.69500122070312Q372.0999755859375 124.69000244140625 372.0999755859375 121.7199951171875Q372.0999755859375 119.2999755859375 373.3774871826172 117.63247375488282Q374.6549987792969 115.96497192382813 377.1425079345703 114.6674774169922Q379.63001708984376 113.36998291015625 383.11500854492186 112.10498657226563L394.48997802734374 107.85499877929688L394.77998046875 109.24500122070313L385.7250549316406 112.88997802734374Q384.21007080078124 113.46497192382813 382.9300659179687 114.27996826171875Q381.6500610351562 115.09496459960937 380.8900512695312 116.23496704101562Q380.1300415039062 117.37496948242188 380.1300415039062 119.01498413085938Q380.1300415039062 121.39498901367188 381.6925445556641 122.94748229980469Q383.2550476074219 124.4999755859375 385.5600341796875 124.4999755859375Q386.5250305175781 124.4999755859375 387.52252502441405 124.21747741699218Q388.52001953125 123.93497924804687 389.90501098632814 123.06998291015626L395.839990234375 119.39498901367188L395.9949890136719 120.77499389648438L388.7199951171875 125.60999755859375Q386.35499877929686 127.25499877929687 384.4099975585938 127.97749938964843Q382.4649963378906 128.7 380.1949890136719 128.7Z M479.2050354003906 89.4Q479.4050354003906 89.4 479.4050354003906 90.0Q479.4050354003906 90.6 479.2050354003906 90.6Q476.58002929687495 90.6 474.68752136230466 92.360009765625Q472.7950134277344 94.12001953125 470.960009765625 98.44502563476563L458.5500122070312 127.94500122070312Q458.4050109863281 128.39000244140624 457.5000122070312 128.39000244140624Q456.59501342773433 128.39000244140624 456.3500122070312 127.94500122070312L441.92999267578125 97.7Q439.83999023437497 93.15499877929688 438.40498657226556 91.87749938964843Q436.9699829101562 90.6 434.98997802734374 90.6Q434.6899780273437 90.6 434.6899780273437 90.0Q434.6899780273437 89.4 434.98997802734374 89.4Q436.5249816894531 89.4 438.3999877929688 89.5Q440.2749938964844 89.6 442.71002197265625 89.6Q446.3700317382812 89.6 448.99503784179683 89.5Q451.6200439453125 89.4 453.8450500488281 89.4Q454.1450500488281 89.4 454.1450500488281 90.0Q454.1450500488281 90.6 453.8450500488281 90.6Q450.7450500488281 90.6 448.96255187988277 91.37250061035155Q447.1800537109375 92.14500122070312 448.3250549316406 94.5L460.87504272460933 120.28992919921875L457.31500854492185 125.84500122070312L468.7649963378906 98.07003173828124Q470.29999999999995 94.3000244140625 468.5950012207031 92.45001220703125Q466.89000244140624 90.6 462.0100219726562 90.6Q461.8100219726562 90.6 461.8100219726562 90.0Q461.8100219726562 89.4 462.0100219726562 89.4Q464.41002197265624 89.4 466.5600219726563 89.5Q468.71002197265625 89.6 472.1100219726562 89.6Q474.3450256347656 89.6 475.7575286865234 89.5Q477.17003173828124 89.4 479.2050354003906 89.4Z M512.0700073242188 128.6Q511.6700073242188 128.8 511.1800048828125 128.8Q509.7099975585937 128.8 508.3499877929687 126.56499633789063Q506.98997802734374 124.32999267578126 506.98997802734374 120.10498657226563V101.8400146484375Q506.98997802734374 95.59501342773437 505.4674896240234 92.94750671386718Q503.94500122070315 90.3 501.1800048828125 90.3Q498.6800048828125 90.3 497.21000976562505 91.6300048828125Q495.7400146484375 92.96000976562499 495.07001953125 94.75001220703125Q494.4000244140625 96.5400146484375 494.13502807617186 97.95001220703125Q493.89002685546876 99.89503784179688 492.9400146484375 101.20003662109374Q491.99000244140626 102.50503540039062 489.76499633789064 102.50503540039062Q487.7699829101563 102.50503540039062 486.8624786376953 101.51503295898438Q485.95497436523436 100.52503051757813 485.95497436523436 99.25502319335938Q485.95497436523436 97.2400146484375 487.9124786376953 95.310009765625Q489.86998291015624 93.3800048828125 492.8674896240234 91.81250305175782Q495.8649963378906 90.24500122070313 499.1125030517578 89.32250061035157Q502.360009765625 88.4 504.95001220703125 88.4Q509.0500122070313 88.4 511.4000244140625 91.02749938964844Q513.7500366210937 93.65499877929688 513.7500366210937 98.8400146484375V117.2Q513.7500366210937 120.48499145507813 514.6900390625 122.11249084472657Q515.6300415039062 123.739990234375 517.6400390625 123.739990234375Q519.3150329589844 123.739990234375 521.9700073242187 122.6Q522.4250061035157 122.4 522.6475067138672 122.95Q522.8700073242187 123.5 522.3700073242187 123.7ZM493.6949890136719 128.7Q489.67998046875 128.7 487.6399780273438 126.69500122070312Q485.5999755859375 124.69000244140625 485.5999755859375 121.7199951171875Q485.5999755859375 119.2999755859375 486.8774871826172 117.63247375488282Q488.1549987792969 115.96497192382813 490.6425079345703 114.6674774169922Q493.13001708984376 113.36998291015625 496.61500854492186 112.10498657226563L507.98997802734374 107.85499877929688L508.27998046875 109.24500122070313L499.2250549316406 112.88997802734374Q497.71007080078124 113.46497192382813 496.4300659179687 114.27996826171875Q495.1500610351562 115.09496459960937 494.3900512695312 116.23496704101562Q493.6300415039062 117.37496948242188 493.6300415039062 119.01498413085938Q493.6300415039062 121.39498901367188 495.1925445556641 122.94748229980469Q496.7550476074219 124.4999755859375 499.0600341796875 124.4999755859375Q500.0250305175781 124.4999755859375 501.02252502441405 124.21747741699218Q502.02001953125 123.93497924804687 503.40501098632814 123.06998291015626L509.339990234375 119.39498901367188L509.4949890136719 120.77499389648438L502.2199951171875 125.60999755859375Q499.85499877929686 127.25499877929687 497.9099975585938 127.97749938964843Q495.9649963378906 128.7 493.6949890136719 128.7Z M555.1849914550781 128.0Q554.8849914550781 128.0 554.8849914550781 127.4Q554.8849914550781 126.8 555.1849914550781 126.8Q558.8349792480469 126.8 559.9899780273438 125.4324981689453Q561.1449768066407 124.06499633789062 561.1449768066407 119.9V104.23502807617187Q561.1449768066407 98.45003662109374 559.0024810791016 95.74003906249999Q556.8599853515625 93.03004150390625 552.2749938964844 93.03004150390625Q548.8350036621093 93.03004150390625 545.2450134277344 95.080029296875Q541.6550231933594 97.13001708984375 539.2050354003907 100.7199951171875L538.7600341796875 99.5199951171875Q542.92001953125 93.860009765625 547.2650207519531 91.00250549316405Q551.6100219726562 88.14500122070312 556.3700317382812 88.14500122070312Q561.9150329589844 88.14500122070312 564.937533569336 91.3425079345703Q567.9600341796875 94.5400146484375 567.9600341796875 100.42500610351563V119.9Q567.9600341796875 124.06499633789062 569.1100341796875 125.4324981689453Q570.2600341796875 126.8 573.9650207519531 126.8Q574.2650207519531 126.8 574.2650207519531 127.4Q574.2650207519531 128.0 573.9650207519531 128.0Q572.1300170898437 128.0 569.6950134277344 127.9Q567.260009765625 127.8 564.5800048828125 127.8Q561.9450012207031 127.8 559.4824981689453 127.9Q557.0199951171875 128.0 555.1849914550781 128.0ZM528.2849914550782 128.0Q527.9849914550781 128.0 527.9849914550781 127.4Q527.9849914550781 126.8 528.2849914550782 126.8Q531.9349792480468 126.8 533.0899780273437 125.4324981689453Q534.2449768066406 124.06499633789062 534.2449768066406 119.9V100.4400146484375Q534.2449768066406 97.17501831054688 533.4899780273438 95.67001953125Q532.7349792480469 94.16502075195312 530.8699829101563 94.16502075195312Q529.9149841308594 94.16502075195312 528.6049865722656 94.54252014160156Q527.2949890136719 94.92001953125 525.6299926757813 95.62001953125Q525.2299926757812 95.76502075195313 525.0024932861328 95.22001953125Q524.7749938964844 94.67501831054688 525.0849914550781 94.52001953125L537.4450256347657 88.6Q537.8250305175782 88.45499877929687 538.0350280761719 88.45499877929687Q538.9150329589844 88.45499877929687 539.9875335693359 90.66250305175781Q541.0600341796875 92.87000732421875 541.0600341796875 97.0400146484375V119.9Q541.0600341796875 124.06499633789062 542.2100341796875 125.4324981689453Q543.3600341796875 126.8 547.0650207519532 126.8Q547.3650207519531 126.8 547.3650207519531 127.4Q547.3650207519531 128.0 547.0650207519532 128.0Q545.2300170898437 128.0 542.7950134277344 127.9Q540.360009765625 127.8 537.6800048828125 127.8Q535.0450012207032 127.8 532.5824981689453 127.9Q530.1199951171875 128.0 528.2849914550782 128.0Z M581.4049865722657 126.8 604.8599609375 91.43500366210938Q605.2599609375 90.73500366210936 604.3599609375 90.73500366210936Q597.6849914550781 90.73500366210936 593.2699951171876 91.55501098632811Q588.8549987792969 92.37501831054686 586.2799926757813 94.4000244140625Q583.7049865722656 96.42503051757812 582.5149841308594 100.180029296875Q582.4149841308594 100.43502807617188 581.8374847412109 100.30752868652344Q581.2599853515625 100.180029296875 581.3599853515625 99.93502807617188L585.0099975585938 86.1599853515625Q585.1099975585937 85.9599853515625 585.7099975585937 86.03248596191406Q586.3099975585938 86.10498657226563 586.1649963378907 86.34998779296875Q585.7199951171875 88.2199951171875 586.8649963378907 88.80999755859375Q588.0099975585938 89.4 591.0 89.4Q594.6800048828125 89.4 600.0950134277343 89.4Q605.5100219726562 89.4 612.7350280761718 89.4Q613.180029296875 89.4 613.4575286865233 89.8Q613.7350280761718 90.19999999999999 613.5350280761719 90.6L590.1850402832031 125.7199951171875Q589.8300415039063 126.4199951171875 590.6850402832031 126.4199951171875Q596.960009765625 126.4199951171875 600.9850036621094 125.99498901367187Q605.0099975585938 125.56998291015626 607.4625030517578 124.47247619628907Q609.9150085449219 123.37496948242188 611.2900146484375 121.33496704101563Q612.6650207519531 119.29496459960937 613.5950134277343 116.06497192382812Q613.6950134277344 115.819970703125 614.2175140380859 115.819970703125Q614.7400146484375 115.819970703125 614.7400146484375 116.06497192382812L614.5400146484375 126.9Q614.5400146484375 127.3 614.2900146484375 127.65Q614.0400146484375 128.0 613.5950134277343 128.0Q608.8050109863282 128.0 603.3850036621094 128.0Q597.9649963378906 128.0 592.5124908447266 128.0Q587.0599853515625 128.0 582.1049865722656 128.0Q581.7049865722656 128.0 581.4549865722656 127.6Q581.2049865722656 127.2 581.4049865722657 126.8Z M624.3899780273438 128.0Q624.1449768066407 128.0 624.1449768066407 127.4Q624.1449768066407 126.8 624.3899780273438 126.8Q628.0399658203125 126.8 629.2224639892579 125.4324981689453Q630.4049621582031 124.06499633789062 630.4049621582031 119.9V101.45001220703125Q630.4049621582031 97.98501586914062 629.7274627685547 96.38001708984375Q629.0499633789062 94.77501831054687 627.2399658203125 94.77501831054687Q626.4299682617187 94.77501831054687 625.369970703125 95.1025177001953Q624.3099731445312 95.43001708984374 622.9349792480468 96.09501342773437Q622.5349792480469 96.19501342773438 622.2849792480469 95.62251281738281Q622.0349792480469 95.05001220703124 622.3899780273438 94.89501342773437L636.0050109863281 88.55499877929688Q636.260009765625 88.45499877929687 636.360009765625 88.45499877929687Q636.6950134277344 88.45499877929687 637.0575164794922 88.79000244140624Q637.42001953125 89.12500610351563 637.42001953125 89.47000732421876Q637.42001953125 90.39501342773437 637.32001953125 93.38750915527343Q637.22001953125 96.3800048828125 637.22001953125 101.30501098632813V119.9Q637.22001953125 124.06499633789062 638.37001953125 125.4324981689453Q639.52001953125 126.8 643.2250061035156 126.8Q643.5250061035156 126.8 643.5250061035156 127.4Q643.5250061035156 128.0 643.2250061035156 128.0Q641.3900024414063 128.0 638.9549987792968 127.9Q636.5199951171875 127.8 633.7849914550782 127.8Q631.1499877929688 127.8 628.7149841308594 127.9Q626.27998046875 128.0 624.3899780273438 128.0ZM633.1649963378907 77.34502563476562Q630.8599853515625 77.34502563476562 629.5399780273438 76.07501831054687Q628.219970703125 74.80501098632811 628.219970703125 72.50999755859374Q628.219970703125 70.34998779296875 629.5399780273438 69.10248107910155Q630.8599853515625 67.85497436523437 633.1649963378907 67.85497436523437Q635.4150085449219 67.85497436523437 636.6400146484375 69.10248107910155Q637.8650207519531 70.34998779296875 637.8650207519531 72.50999755859374Q637.8650207519531 77.34502563476562 633.1649963378907 77.34502563476562Z M679.1849914550781 128.0Q678.8849914550781 128.0 678.8849914550781 127.4Q678.8849914550781 126.8 679.1849914550781 126.8Q682.8349792480469 126.8 683.9899780273438 125.4324981689453Q685.1449768066407 124.06499633789062 685.1449768066407 119.9V104.23502807617187Q685.1449768066407 98.45003662109374 683.0024810791016 95.74003906249999Q680.8599853515625 93.03004150390625 676.2749938964844 93.03004150390625Q672.8350036621093 93.03004150390625 669.2450134277344 95.080029296875Q665.6550231933594 97.13001708984375 663.2050354003907 100.7199951171875L662.7600341796875 99.5199951171875Q666.92001953125 93.860009765625 671.2650207519531 91.00250549316405Q675.6100219726562 88.14500122070312 680.3700317382812 88.14500122070312Q685.9150329589844 88.14500122070312 688.937533569336 91.3425079345703Q691.9600341796875 94.5400146484375 691.9600341796875 100.42500610351563V119.9Q691.9600341796875 124.06499633789062 693.1100341796875 125.4324981689453Q694.2600341796875 126.8 697.9650207519531 126.8Q698.2650207519531 126.8 698.2650207519531 127.4Q698.2650207519531 128.0 697.9650207519531 128.0Q696.1300170898437 128.0 693.6950134277344 127.9Q691.260009765625 127.8 688.5800048828125 127.8Q685.9450012207031 127.8 683.4824981689453 127.9Q681.0199951171875 128.0 679.1849914550781 128.0ZM652.2849914550782 128.0Q651.9849914550781 128.0 651.9849914550781 127.4Q651.9849914550781 126.8 652.2849914550782 126.8Q655.9349792480468 126.8 657.0899780273437 125.4324981689453Q658.2449768066406 124.06499633789062 658.2449768066406 119.9V100.4400146484375Q658.2449768066406 97.17501831054688 657.4899780273438 95.67001953125Q656.7349792480469 94.16502075195312 654.8699829101563 94.16502075195312Q653.9149841308594 94.16502075195312 652.6049865722656 94.54252014160156Q651.2949890136719 94.92001953125 649.6299926757813 95.62001953125Q649.2299926757812 95.76502075195313 649.0024932861328 95.22001953125Q648.7749938964844 94.67501831054688 649.0849914550781 94.52001953125L661.4450256347657 88.6Q661.8250305175782 88.45499877929687 662.0350280761719 88.45499877929687Q662.9150329589844 88.45499877929687 663.9875335693359 90.66250305175781Q665.0600341796875 92.87000732421875 665.0600341796875 97.0400146484375V119.9Q665.0600341796875 124.06499633789062 666.2100341796875 125.4324981689453Q667.3600341796875 126.8 671.0650207519532 126.8Q671.3650207519531 126.8 671.3650207519531 127.4Q671.3650207519531 128.0 671.0650207519532 128.0Q669.2300170898437 128.0 666.7950134277344 127.9Q664.360009765625 127.8 661.6800048828125 127.8Q659.0450012207032 127.8 656.5824981689453 127.9Q654.1199951171875 128.0 652.2849914550782 128.0Z"></path>
  <path fill="#9B2C1C" d="M278.67374114990236 175.4775177001953 278.966242980957 174.9150146484375H285.7675018310547L285.9425018310547 175.4775177001953ZM291.60875701904297 181.7Q291.7200073242187 181.7 291.7200073242187 181.85Q291.7200073242187 182.0 291.60875701904297 182.0Q290.8862564086914 182.0 290.11500549316406 181.95Q289.34375457763673 181.9 288.6350036621094 181.9Q287.82625274658204 181.9 287.2356269836426 181.95Q286.64500122070314 182.0 285.925 182.0Q285.825 182.0 285.825 181.85Q285.825 181.7 285.925 181.7Q287.15624542236327 181.7 287.42874298095705 181.30812454223633Q287.7012405395508 180.91624908447267 287.1587387084961 179.7874969482422L281.7674957275391 168.5937728881836L282.5800048828125 167.3925018310547L277.6875030517578 178.71124420166015Q277.0400024414063 180.22499389648436 277.62125396728516 180.96249694824218Q278.20250549316404 181.7 279.7675018310547 181.7Q279.8925018310547 181.7 279.8925018310547 181.85Q279.8925018310547 182.0 279.7675018310547 182.0Q279.0175018310547 182.0 278.3925018310547 181.95Q277.7675018310547 181.9 276.8175018310547 181.9Q275.8975006103516 181.9 275.3375 181.95Q274.7774993896484 182.0 273.9824981689453 182.0Q273.8824981689453 182.0 273.8824981689453 181.85Q273.8824981689453 181.7 273.9824981689453 181.7Q274.6574981689453 181.7 275.1518730163574 181.43312454223633Q275.64624786376953 181.16624908447267 276.1062484741211 180.46562271118165Q276.56624908447264 179.76499633789064 277.12250061035155 178.47499389648436L282.4375030517578 166.1925018310547Q282.476252746582 166.11750183105468 282.6281288146972 166.11187667846679Q282.7800048828125 166.10625152587892 282.8050048828125 166.1925018310547L288.80751037597656 178.575Q289.39376068115234 179.79124908447267 289.83813552856446 180.47874908447267Q290.2825103759766 181.16624908447267 290.7043846130371 181.43312454223633Q291.12625885009766 181.7 291.60875701904297 181.7Z M303.701252746582 179.14124298095703V166.95L304.3412551879883 167.0V179.14124298095703Q304.3412551879883 180.4387435913086 304.82250671386714 181.0693717956543Q305.30375823974606 181.7 306.32000732421875 181.7Q306.38375701904295 181.7 306.38375701904295 181.85Q306.38375701904295 182.0 306.32000732421875 182.0Q305.8112564086914 182.0 305.26500549316404 181.975Q304.7187545776367 181.95 304.06000366210935 181.95Q303.3925018310547 181.95 302.7693748474121 181.975Q302.14624786376953 182.0 301.60124664306636 182.0Q301.5399963378906 182.0 301.5399963378906 181.85Q301.5399963378906 181.7 301.60124664306636 181.7Q302.7012466430664 181.7 303.2012496948242 181.0693717956543Q303.701252746582 180.4387435913086 303.701252746582 179.14124298095703ZM316.35500488281247 182.32000122070312Q316.35500488281247 182.3812515258789 316.2356300354004 182.39375152587888Q316.11625518798826 182.4062515258789 316.06625518798825 182.3812515258789L304.30499267578125 168.425Q303.43249206542964 167.4 302.78686752319334 167.03750000000002Q302.14124298095703 166.675 301.5299926757812 166.675Q301.466242980957 166.675 301.466242980957 166.525Q301.466242980957 166.375 301.5299926757812 166.375Q301.98874359130855 166.375 302.4724945068359 166.4Q302.9562454223633 166.425 303.35124664306636 166.425Q303.9487533569336 166.425 304.446883392334 166.4Q304.94501342773435 166.375 305.20751647949214 166.375Q305.5325164794922 166.375 305.67439193725585 166.6625Q305.8162673950195 166.95 306.4025177001953 167.675L316.1550048828125 179.4187240600586ZM316.35500488281247 169.25875701904297V182.32000122070312L315.726252746582 181.5562515258789V169.25875701904297Q315.726252746582 167.9612564086914 315.25875091552734 167.31812820434573Q314.7912490844726 166.675 313.775 166.675Q313.72499999999997 166.675 313.72499999999997 166.525Q313.72499999999997 166.375 313.775 166.375Q314.29750061035156 166.375 314.84375152587893 166.4125Q315.39000244140624 166.45 316.04875335693356 166.45Q316.6687545776367 166.45 317.2775054931641 166.4125Q317.8862564086914 166.375 318.39500732421874 166.375Q318.45875701904293 166.375 318.45875701904293 166.525Q318.45875701904293 166.675 318.39500732421874 166.675Q317.35375823974607 166.675 316.8543815612793 167.31812820434573Q316.35500488281247 167.9612564086914 316.35500488281247 169.25875701904297Z M332.57374114990233 175.4775177001953 332.866242980957 174.9150146484375H339.66750183105466L339.8425018310547 175.4775177001953ZM345.50875701904295 181.7Q345.6200073242187 181.7 345.6200073242187 181.85Q345.6200073242187 182.0 345.50875701904295 182.0Q344.7862564086914 182.0 344.01500549316404 181.95Q343.2437545776367 181.9 342.5350036621094 181.9Q341.726252746582 181.9 341.13562698364257 181.95Q340.5450012207031 182.0 339.825 182.0Q339.72499999999997 182.0 339.72499999999997 181.85Q339.72499999999997 181.7 339.825 181.7Q341.05624542236325 181.7 341.32874298095703 181.30812454223633Q341.60124053955076 180.91624908447267 341.0587387084961 179.7874969482422L335.66749572753906 168.5937728881836L336.48000488281247 167.3925018310547L331.5875030517578 178.71124420166015Q330.94000244140625 180.22499389648436 331.52125396728513 180.96249694824218Q332.102505493164 181.7 333.66750183105466 181.7Q333.79250183105466 181.7 333.79250183105466 181.85Q333.79250183105466 182.0 333.66750183105466 182.0Q332.91750183105466 182.0 332.29250183105466 181.95Q331.66750183105466 181.9 330.7175018310547 181.9Q329.79750061035156 181.9 329.23749999999995 181.95Q328.6774993896484 182.0 327.8824981689453 182.0Q327.78249816894527 182.0 327.78249816894527 181.85Q327.78249816894527 181.7 327.8824981689453 181.7Q328.5574981689453 181.7 329.0518730163574 181.43312454223633Q329.5462478637695 181.16624908447267 330.0062484741211 180.46562271118165Q330.4662490844726 179.76499633789064 331.0225006103515 178.47499389648436L336.3375030517578 166.1925018310547Q336.376252746582 166.11750183105468 336.5281288146972 166.11187667846679Q336.68000488281245 166.10625152587892 336.7050048828125 166.1925018310547L342.70751037597654 178.575Q343.2937606811523 179.79124908447267 343.73813552856444 180.47874908447267Q344.18251037597656 181.16624908447267 344.6043846130371 181.43312454223633Q345.02625885009763 181.7 345.50875701904295 181.7Z M371.24374847412105 166.375Q371.31874847412104 166.375 371.31874847412104 166.525Q371.31874847412104 166.675 371.24374847412105 166.675Q370.4012466430664 166.675 369.7124938964844 167.21375579833983Q369.0237411499023 167.75251159667968 368.55124053955075 168.95126495361328L363.4450012207031 181.975Q363.42000122070306 182.075 363.1825012207031 182.075Q362.9450012207031 182.075 362.8950012207031 181.975L356.62999877929684 168.45Q356.20499877929683 167.52000122070314 355.7412490844726 167.09750061035157Q355.27749938964837 166.675 354.57875213623043 166.675Q354.50375213623045 166.675 354.50375213623045 166.525Q354.50375213623045 166.375 354.57875213623043 166.375Q354.9062515258789 166.375 355.17874908447266 166.4Q355.4512466430664 166.425 355.779995727539 166.4375Q356.10874481201165 166.45 356.56874847412104 166.45Q357.528758239746 166.45 358.19751281738274 166.4375Q358.86626739501946 166.425 359.34064407348626 166.4Q359.81502075195306 166.375 360.20127105712885 166.375Q360.27627105712884 166.375 360.27627105712884 166.525Q360.27627105712884 166.675 360.20127105712885 166.675Q359.19501953124995 166.675 358.8175201416015 167.11687850952148Q358.44002075195306 167.55875701904296 358.88752136230465 168.51500854492187L364.01500854492184 179.68622589111328L363.1150024414062 181.11748962402345L367.9474884033203 168.83501586914062Q368.3424896240234 167.8025115966797 367.96186447143555 167.23875579833987Q367.5812393188476 166.675 366.2599914550781 166.675Q366.1849914550781 166.675 366.1849914550781 166.525Q366.1849914550781 166.375 366.2599914550781 166.375Q366.90249328613277 166.375 367.49061965942377 166.4125Q368.0787460327148 166.45 369.0299987792968 166.45Q369.74374847412105 166.45 370.18124847412105 166.4125Q370.61874847412105 166.375 371.24374847412105 166.375Z M384.82374114990233 175.4775177001953 385.116242980957 174.9150146484375H391.91750183105466L392.0925018310547 175.4775177001953ZM397.75875701904295 181.7Q397.8700073242187 181.7 397.8700073242187 181.85Q397.8700073242187 182.0 397.75875701904295 182.0Q397.0362564086914 182.0 396.26500549316404 181.95Q395.4937545776367 181.9 394.7850036621094 181.9Q393.976252746582 181.9 393.38562698364257 181.95Q392.7950012207031 182.0 392.075 182.0Q391.97499999999997 182.0 391.97499999999997 181.85Q391.97499999999997 181.7 392.075 181.7Q393.30624542236325 181.7 393.57874298095703 181.30812454223633Q393.85124053955076 180.91624908447267 393.3087387084961 179.7874969482422L387.91749572753906 168.5937728881836L388.73000488281247 167.3925018310547L383.8375030517578 178.71124420166015Q383.19000244140625 180.22499389648436 383.77125396728513 180.96249694824218Q384.352505493164 181.7 385.91750183105466 181.7Q386.04250183105466 181.7 386.04250183105466 181.85Q386.04250183105466 182.0 385.91750183105466 182.0Q385.16750183105466 182.0 384.54250183105466 181.95Q383.91750183105466 181.9 382.9675018310547 181.9Q382.04750061035156 181.9 381.48749999999995 181.95Q380.9274993896484 182.0 380.1324981689453 182.0Q380.03249816894527 182.0 380.03249816894527 181.85Q380.03249816894527 181.7 380.1324981689453 181.7Q380.8074981689453 181.7 381.3018730163574 181.43312454223633Q381.7962478637695 181.16624908447267 382.2562484741211 180.46562271118165Q382.7162490844726 179.76499633789064 383.2725006103515 178.47499389648436L388.5875030517578 166.1925018310547Q388.626252746582 166.11750183105468 388.7781288146972 166.11187667846679Q388.93000488281245 166.10625152587892 388.9550048828125 166.1925018310547L394.95751037597654 178.575Q395.5437606811523 179.79124908447267 395.98813552856444 180.47874908447267Q396.43251037597656 181.16624908447267 396.8543846130371 181.43312454223633Q397.27625885009763 181.7 397.75875701904295 181.7Z M409.85125274658196 179.14124298095703V166.95L410.49125518798826 167.0V179.14124298095703Q410.49125518798826 180.4387435913086 410.9725067138671 181.0693717956543Q411.45375823974604 181.7 412.4700073242187 181.7Q412.5337570190429 181.7 412.5337570190429 181.85Q412.5337570190429 182.0 412.4700073242187 182.0Q411.9612564086914 182.0 411.415005493164 181.975Q410.86875457763665 181.95 410.21000366210933 181.95Q409.54250183105466 181.95 408.9193748474121 181.975Q408.2962478637695 182.0 407.75124664306634 182.0Q407.6899963378906 182.0 407.6899963378906 181.85Q407.6899963378906 181.7 407.75124664306634 181.7Q408.85124664306636 181.7 409.35124969482416 181.0693717956543Q409.85125274658196 180.4387435913086 409.85125274658196 179.14124298095703ZM422.50500488281244 182.32000122070312Q422.50500488281244 182.3812515258789 422.38563003540037 182.39375152587888Q422.26625518798824 182.4062515258789 422.2162551879882 182.3812515258789L410.4549926757812 168.425Q409.5824920654296 167.4 408.9368675231933 167.03750000000002Q408.291242980957 166.675 407.6799926757812 166.675Q407.616242980957 166.675 407.616242980957 166.525Q407.616242980957 166.375 407.6799926757812 166.375Q408.1387435913085 166.375 408.6224945068359 166.4Q409.10624542236326 166.425 409.50124664306634 166.425Q410.09875335693357 166.425 410.59688339233395 166.4Q411.09501342773433 166.375 411.3575164794921 166.375Q411.68251647949216 166.375 411.8243919372558 166.6625Q411.9662673950195 166.95 412.55251770019527 167.675L422.30500488281245 179.4187240600586ZM422.50500488281244 169.25875701904297V182.32000122070312L421.876252746582 181.5562515258789V169.25875701904297Q421.876252746582 167.9612564086914 421.4087509155273 167.31812820434573Q420.9412490844726 166.675 419.92499999999995 166.675Q419.87499999999994 166.675 419.87499999999994 166.525Q419.87499999999994 166.375 419.92499999999995 166.375Q420.44750061035154 166.375 420.9937515258789 166.4125Q421.5400024414062 166.45 422.19875335693354 166.45Q422.8187545776367 166.45 423.42750549316406 166.4125Q424.0362564086914 166.375 424.5450073242187 166.375Q424.6087570190429 166.375 424.6087570190429 166.525Q424.6087570190429 166.675 424.5450073242187 166.675Q423.50375823974605 166.675 423.0043815612793 167.31812820434573Q422.50500488281244 167.9612564086914 422.50500488281244 169.25875701904297Z M435.4675018310546 181.675 444.9987350463867 167.0Q445.0874847412109 166.875 445.0681098937988 166.8375Q445.0487350463867 166.8 444.8737350463867 166.8Q442.71874847412107 166.8 441.2493797302246 166.84187545776368Q439.7800109863281 166.88375091552734 438.8375122070312 167.0312515258789Q437.89501342773434 167.17875213623046 437.32751159667964 167.5000030517578Q436.76000976562494 167.82125396728514 436.390631866455 168.35375518798827Q436.02125396728513 168.8862564086914 435.69250183105464 169.72000732421876Q435.66750183105466 169.78375701904298 435.5175018310547 169.75188217163088Q435.36750183105465 169.72000732421876 435.39250183105463 169.65875701904298L436.39250183105463 165.625Q436.41750183105466 165.575 436.56750183105464 165.6Q436.7175018310546 165.625 436.69250183105464 165.675Q436.61750183105465 166.125 436.8925018310547 166.25Q437.16750183105466 166.375 438.11750183105465 166.375Q439.61750183105465 166.375 441.79250183105466 166.375Q443.9675018310546 166.375 447.24250183105465 166.375Q447.36750183105465 166.375 447.42312698364253 166.49312515258788Q447.4787521362304 166.6112503051758 447.41750183105466 166.7L438.0112686157226 181.325Q437.91126861572263 181.45 437.9362686157226 181.4875Q437.9612686157226 181.525 438.1250183105468 181.525Q440.06626129150385 181.525 441.60438156127924 181.525Q443.14250183105463 181.525 444.0824981689453 181.525Q445.1449951171875 181.525 445.9274963378906 181.17249755859376Q446.7099975585937 180.8199951171875 447.2068748474121 180.1399932861328Q447.70375213623043 179.45999145507812 447.86750183105465 178.49124298095703Q447.89250183105463 178.42999267578125 448.01750183105463 178.42999267578125Q448.14250183105463 178.42999267578125 448.14250183105463 178.49124298095703L447.79250183105466 181.8Q447.79250183105466 181.875 447.74250183105465 181.9625Q447.69250183105464 182.05 447.56750183105464 182.05Q445.7175018310546 182.025 443.6550018310546 182.0125Q441.5925018310546 182.0 439.5300018310546 182.0Q437.4675018310546 182.0 435.60625152587886 182.0Q435.50625152587884 182.0 435.4493766784667 181.8875Q435.39250183105463 181.775 435.4675018310546 181.675Z M463.1937606811523 179.975Q463.1937606811523 180.7 463.33251037597654 181.075Q463.4712600708007 181.45 463.9081336975097 181.575Q464.34500732421867 181.7 465.2162551879882 181.7Q465.277505493164 181.7 465.277505493164 181.85Q465.277505493164 182.0 465.2162551879882 182.0Q464.59086988400185 182.0 463.83519597501834 181.975Q463.07952206603477 181.95 462.1675018310546 181.95Q461.3040956168339 181.95 460.5322627889699 181.975Q459.76042996110584 182.0 459.13249816894523 182.0Q459.06874847412104 182.0 459.06874847412104 181.85Q459.06874847412104 181.7 459.1369982910156 181.7Q460.0014959716796 181.7 460.4451197814941 181.575Q460.8887435913085 181.45 461.03999328613276 181.075Q461.191242980957 180.7 461.191242980957 179.975V168.4Q461.191242980957 167.675 461.042555855645 167.3125Q460.89386873033305 166.95 460.4478073543972 166.8125Q460.0017459784613 166.675 459.13249816894523 166.675Q459.06874847412104 166.675 459.06874847412104 166.525Q459.06874847412104 166.375 459.13249816894523 166.375Q459.76042996110584 166.375 460.5322627889699 166.4125Q461.3040956168339 166.45 462.1675018310546 166.45Q463.07952206603477 166.45 463.848224835518 166.4125Q464.61692760500125 166.375 465.2162551879882 166.375Q465.277505493164 166.375 465.277505493164 166.525Q465.277505493164 166.675 465.2162551879882 166.675Q464.35271820754144 166.675 463.920949717318 166.825Q463.4891812270946 166.975 463.34147095412345 167.35Q463.1937606811523 167.725 463.1937606811523 168.45Z M478.42625274658195 179.14124298095703V166.95L479.06625518798825 167.0V179.14124298095703Q479.06625518798825 180.4387435913086 479.54750671386716 181.0693717956543Q480.028758239746 181.7 481.0450073242187 181.7Q481.1087570190429 181.7 481.1087570190429 181.85Q481.1087570190429 182.0 481.0450073242187 182.0Q480.5362564086914 182.0 479.990005493164 181.975Q479.44375457763664 181.95 478.7850036621093 181.95Q478.11750183105465 181.95 477.4943748474121 181.975Q476.8712478637695 182.0 476.3262466430663 182.0Q476.2649963378906 182.0 476.2649963378906 181.85Q476.2649963378906 181.7 476.3262466430663 181.7Q477.42624664306635 181.7 477.92624969482415 181.0693717956543Q478.42625274658195 180.4387435913086 478.42625274658195 179.14124298095703ZM491.08000488281243 182.32000122070312Q491.08000488281243 182.3812515258789 490.9606300354003 182.39375152587888Q490.8412551879882 182.4062515258789 490.7912551879882 182.3812515258789L479.0299926757812 168.425Q478.1574920654296 167.4 477.5118675231933 167.03750000000002Q476.866242980957 166.675 476.2549926757812 166.675Q476.191242980957 166.675 476.191242980957 166.525Q476.191242980957 166.375 476.2549926757812 166.375Q476.7137435913085 166.375 477.1974945068359 166.4Q477.68124542236325 166.425 478.0762466430663 166.425Q478.67375335693356 166.425 479.17188339233394 166.4Q479.6700134277343 166.375 479.9325164794921 166.375Q480.25751647949215 166.375 480.3993919372558 166.6625Q480.5412673950195 166.95 481.12751770019526 167.675L490.88000488281244 179.4187240600586ZM491.08000488281243 169.25875701904297V182.32000122070312L490.451252746582 181.5562515258789V169.25875701904297Q490.451252746582 167.9612564086914 489.98375091552725 167.31812820434573Q489.5162490844726 166.675 488.49999999999994 166.675Q488.44999999999993 166.675 488.44999999999993 166.525Q488.44999999999993 166.375 488.49999999999994 166.375Q489.0225006103515 166.375 489.56875152587884 166.4125Q490.1150024414062 166.45 490.7737533569335 166.45Q491.3937545776367 166.45 492.002505493164 166.4125Q492.61125640869136 166.375 493.1200073242187 166.375Q493.1837570190429 166.375 493.1837570190429 166.525Q493.1837570190429 166.675 493.1200073242187 166.675Q492.07875823974604 166.675 491.5793815612792 167.31812820434573Q491.08000488281243 167.9612564086914 491.08000488281243 169.25875701904297Z M505.1537521362304 182.275Q504.5912490844726 182.275 504.2543724060058 181.94710760116578Q503.917495727539 181.61921520233153 503.917495727539 181.05711394718716Q503.917495727539 180.52624053955077 504.2543724060058 180.20873870849607Q504.5912490844726 179.8912368774414 505.15071151320996 179.8912368774414Q505.7412551879882 179.8912368774414 506.0475067138671 180.20873870849607Q506.353758239746 180.52624053955077 506.353758239746 181.05711394718716Q506.353758239746 181.61921520233153 506.0460643670497 181.94710760116578Q505.73837049435343 182.275 505.1537521362304 182.275Z M527.0250061035156 166.1Q527.9812515258789 166.1 528.7937515258789 166.1887496948242Q529.6062515258789 166.27749938964843 530.3175018310546 166.4756233215332Q531.0287521362304 166.67374725341796 531.6799987792969 166.9949951171875Q531.8637496948243 167.08374481201173 531.9125 167.1687454223633Q531.9612503051758 167.25374603271484 531.9862503051758 167.55624542236328L532.2975006103516 170.6875030517578Q532.2975006103516 170.7487533569336 532.1656257629395 170.7806282043457Q532.0337509155273 170.8125030517578 531.9975006103516 170.7125030517578Q531.3799987792969 168.66000366210938 530.1062484741211 167.59437789916993Q528.8324981689453 166.52875213623048 526.8450012207031 166.52875213623048Q524.8562576293946 166.52875213623048 523.3468864440918 167.44812698364257Q521.837515258789 168.36750183105468 520.9925170898437 170.0562515258789Q520.1475189208984 171.74500122070313 520.1475189208984 174.0562515258789Q520.1475189208984 175.7375030517578 520.6731422424316 177.17062759399414Q521.1987655639648 178.60375213623047 522.1406379699706 179.65875091552735Q523.0825103759765 180.71374969482423 524.3175079345704 181.29937362670898Q525.5525054931641 181.88499755859374 526.9850036621094 181.88499755859374Q528.9662490844727 181.88499755859374 530.2043724060059 180.8812484741211Q531.442495727539 179.87749938964845 532.2062515258789 177.8324981689453Q532.2425018310547 177.75749816894532 532.3687515258789 177.78249816894532Q532.4950012207031 177.8074981689453 532.4950012207031 177.8687484741211L532.2162490844727 180.72125396728515Q532.1912490844727 181.02125396728516 532.1356239318848 181.10187911987305Q532.0799987792968 181.18250427246093 531.8962478637695 181.28250427246093Q530.6274993896484 181.85875091552734 529.4674987792969 182.08625030517578Q528.3074981689454 182.31374969482422 526.9712539672852 182.31374969482422Q524.3125030517579 182.31374969482422 522.2537521362306 181.28750000000002Q520.1950012207031 180.2612503051758 519.0225006103516 178.41437606811525Q517.85 176.5675018310547 517.85 174.14875335693358Q517.85 172.3487533569336 518.5350006103515 170.87062759399413Q519.2200012207031 169.3925018310547 520.4662521362304 168.32562637329102Q521.7125030517578 167.25875091552734 523.3825042724609 166.67937545776368Q525.0525054931641 166.1 527.0250061035156 166.1Z M551.875 182.3Q550.075 182.3 548.6125 181.66250000000002Q547.15 181.025 546.1125 179.9Q545.075 178.775 544.5125 177.3125Q543.95 175.85 543.95 174.2Q543.95 172.175 544.7375 170.65Q545.525 169.125 546.825 168.1125Q548.125 167.1 549.675 166.6Q551.225 166.1 552.75 166.1Q554.6 166.1 556.0625 166.7625Q557.525 167.425 558.55 168.55Q559.575 169.675 560.1125 171.10000000000002Q560.65 172.525 560.65 174.025Q560.65 175.775 559.95 177.275Q559.25 178.775 558.0375 179.9Q556.825 181.025 555.2375 181.66250000000002Q553.65 182.3 551.875 182.3ZM552.7412490844727 181.7437484741211Q554.3337448120118 181.7437484741211 555.6124908447266 180.93687362670897Q556.8912368774414 180.12999877929687 557.6387344360352 178.55937423706052Q558.3862319946289 176.9887496948242 558.3862319946289 174.7362503051758Q558.3862319946289 172.39500122070314 557.569359588623 170.588126373291Q556.7524871826172 168.7812515258789 555.2599914550781 167.7437515258789Q553.7674957275391 166.7062515258789 551.7225006103516 166.7062515258789Q549.1037582397461 166.7062515258789 547.6587631225586 168.47250061035157Q546.2137680053711 170.2387496948242 546.2137680053711 173.31624908447264Q546.2137680053711 175.1 546.686891937256 176.6375Q547.1600158691407 178.175 548.0325134277344 179.32624969482424Q548.9050109863282 180.47749938964844 550.1006324768067 181.1106239318848Q551.2962539672852 181.7437484741211 552.7412490844727 181.7437484741211Z M573.8412490844727 179.14124298095703 574.0912490844727 166.95 574.7200012207031 167.0 574.4725006103515 179.14124298095703Q574.4475006103515 180.4387435913086 574.9412521362304 181.0693717956543Q575.4350036621094 181.7 576.5837509155274 181.7Q576.6450012207031 181.7 576.6450012207031 181.85Q576.6450012207031 182.0 576.5837509155274 182.0Q576.0337509155273 182.0 575.4518760681152 181.975Q574.8700012207031 181.95 574.1587509155273 181.95Q573.4687484741211 181.95 572.873747253418 181.975Q572.2787460327148 182.0 571.7562454223632 182.0Q571.6949951171875 182.0 571.6949951171875 181.85Q571.6949951171875 181.7 571.7562454223632 181.7Q572.7949951171875 181.7 573.3056221008301 181.0693717956543Q573.8162490844727 180.4387435913086 573.8412490844727 179.14124298095703ZM591.3425079345703 181.7Q591.4062576293945 181.7 591.4062576293945 181.85Q591.4062576293945 182.0 591.3425079345703 182.0Q590.7200073242187 182.0 589.9431312561035 181.975Q589.1662551879883 181.95 588.307504272461 181.95Q587.4650024414062 181.95 586.7475006103516 181.975Q586.0299987792969 182.0 585.448747253418 182.0Q585.3874969482422 182.0 585.3874969482422 181.85Q585.3874969482422 181.7 585.448747253418 181.7Q586.6649963378907 181.7 587.0162460327149 181.375Q587.3674957275391 181.05 587.3062454223633 179.975L586.7999938964844 168.20126495361328L587.7725006103516 166.7925018310547L581.301252746582 181.825Q581.276252746582 181.925 581.10687789917 181.925Q580.9375030517579 181.925 580.8875030517578 181.825L574.371241760254 168.45Q573.5037399291992 166.675 571.9312454223633 166.675Q571.8699951171875 166.675 571.8699951171875 166.525Q571.8699951171875 166.375 571.9312454223633 166.375Q572.373747253418 166.375 572.8662490844727 166.4Q573.3587509155274 166.425 573.6900024414062 166.425Q574.1750061035157 166.425 574.559383392334 166.4Q574.9437606811523 166.375 575.1500122070313 166.375Q575.5000122070312 166.375 575.6943870544433 166.6112503051758Q575.8887619018554 166.84750061035157 576.3000122070313 167.675L581.9687606811524 179.20622711181642L581.0487533569336 180.7962417602539L587.0637496948242 167.0Q587.2 166.69124908447264 587.3899993896484 166.53312454223632Q587.5799987792968 166.375 587.8137496948242 166.375Q587.9950012207031 166.375 588.256251525879 166.4Q588.5175018310547 166.425 588.8650024414062 166.425Q589.5825042724609 166.425 590.0556312561035 166.4Q590.5287582397461 166.375 591.0237594604492 166.375Q591.085009765625 166.375 591.085009765625 166.525Q591.085009765625 166.675 591.0237594604492 166.675Q589.8325103759765 166.675 589.2743858337402 167.06062698364258Q588.7162612915039 167.44625396728514 588.7525115966797 168.4737533569336L589.2837631225586 179.975Q589.3200134277344 180.7 589.4712631225586 181.075Q589.6225128173828 181.45 590.0525115966797 181.575Q590.4825103759765 181.7 591.3425079345703 181.7Z"></path>
</svg>