<svg xmlns="http://www.w3.org/2000/svg" viewBox="0 0 100 100" width="100" height="100"><path d="M45.2,13.3 L50.0,3.0 L54.8,13.3 Z" fill="#9C7C3D"></path><path d="M59.6,14.3 L68.0,6.6 L68.5,17.9 Z" fill="#B7934C"></path><path d="M72.6,20.7 L83.2,16.8 L79.3,27.4 Z" fill="#9C7C3D"></path><path d="M82.1,31.5 L93.4,32.0 L85.7,40.4 Z" fill="#B7934C"></path><path d="M86.7,45.2 L97.0,50.0 L86.7,54.8 Z" fill="#9C7C3D"></path><path d="M85.7,59.6 L93.4,68.0 L82.1,68.5 Z" fill="#B7934C"></path><path d="M79.3,72.6 L83.2,83.2 L72.6,79.3 Z" fill="#9C7C3D"></path><path d="M68.5,82.1 L68.0,93.4 L59.6,85.7 Z" fill="#B7934C"></path><path d="M54.8,86.7 L50.0,97.0 L45.2,86.7 Z" fill="#9C7C3D"></path><path d="M40.4,85.7 L32.0,93.4 L31.5,82.1 Z" fill="#B7934C"></path><path d="M27.4,79.3 L16.8,83.2 L20.7,72.6 Z" fill="#9C7C3D"></path><path d="M17.9,68.5 L6.6,68.0 L14.3,59.6 Z" fill="#B7934C"></path><path d="M13.3,54.8 L3.0,50.0 L13.3,45.2 Z" fill="#9C7C3D"></path><path d="M14.3,40.4 L6.6,32.0 L17.9,31.5 Z" fill="#B7934C"></path><path d="M20.7,27.4 L16.8,16.8 L27.4,20.7 Z" fill="#9C7C3D"></path><path d="M31.5,17.9 L32.0,6.6 L40.4,14.3 Z" fill="#B7934C"></path><circle cx="50" cy="50" r="36" fill="#F2EAD9" stroke="#211B16" stroke-width="2"></circle><circle cx="50" cy="50" r="31.5" fill="none" stroke="#9C7C3D" stroke-width="1.2"></circle>
  <rect x="49" y="34" width="2" height="22" fill="#211B16"></rect>
  <rect x="37" y="43" width="26" height="2.4" fill="#211B16"></rect>
  <circle cx="37" cy="44" r="1.6" fill="#211B16"></circle>
  <circle cx="63" cy="44" r="1.6" fill="#211B16"></circle>
  <path d="M32,46 L42,46 L37,54 Z" fill="#9B2C1C"></path>
  <path d="M58,46 L68,46 L63,54 Z" fill="#9B2C1C"></path>
  <circle cx="50" cy="32" r="2.4" fill="#B7934C" stroke="#211B16" stroke-width="1"></circle>
  <rect x="43" y="57" width="14" height="2.2" fill="#211B16"></rect></svg>